<?xml version="1.0" encoding="iso-8859-1"?>
<!-- Generator: Adobe Illustrator 18.1.1, SVG Export Plug-In . SVG Version: 6.00 Build 0)  -->
<svg version="1.1" id="Capa_1" xmlns="http://www.w3.org/2000/svg" xmlns:xlink="http://www.w3.org/1999/xlink" x="0px" y="0px"
	 viewBox="0 0 332.262 332.262" style="enable-background:new 0 0 332.262 332.262;" xml:space="preserve">
<g>
	<g>
		<path style="fill:#010002;" d="M36.273,202.401C16.274,202.401,0,186.133,0,166.133c0-20.005,16.274-36.273,36.273-36.273
			s36.273,16.274,36.273,36.273C72.546,186.128,56.273,202.401,36.273,202.401z M36.273,140.733
			c-14.006,0-25.395,11.395-25.395,25.395c0,14,11.389,25.39,25.395,25.39s25.395-11.389,25.395-25.39
			S50.279,140.733,36.273,140.733z"/>
		<path style="fill:#010002;" d="M164.091,202.401c-19.999,0-36.273-16.268-36.273-36.268c0-20.005,16.274-36.273,36.273-36.273
			c20.005,0,36.273,16.274,36.273,36.273C200.364,186.128,184.096,202.401,164.091,202.401z M164.091,140.733
			c-14.006,0-25.395,11.395-25.395,25.395c0,14,11.389,25.39,25.395,25.39c14,0,25.395-11.389,25.395-25.39
			S178.091,140.733,164.091,140.733z"/>
		<path style="fill:#010002;" d="M295.988,202.401c-20.005,0-36.273-16.268-36.273-36.268c0-20.005,16.268-36.273,36.273-36.273
			s36.273,16.274,36.273,36.273C332.262,186.128,315.993,202.401,295.988,202.401z M295.988,140.733
			c-14,0-25.395,11.395-25.395,25.395c0,14,11.395,25.39,25.395,25.39c14,0,25.395-11.389,25.395-25.39
			S309.989,140.733,295.988,140.733z"/>
	</g>
</g>
<g>
</g>
<g>
</g>
<g>
</g>
<g>
</g>
<g>
</g>
<g>
</g>
<g>
</g>
<g>
</g>
<g>
</g>
<g>
</g>
<g>
</g>
<g>
</g>
<g>
</g>
<g>
</g>
<g>
</g>
</svg>
