<?xml version="1.0" encoding="iso-8859-1"?>
<!-- Generator: Adobe Illustrator 19.0.0, SVG Export Plug-In . SVG Version: 6.00 Build 0)  -->
<svg version="1.1" id="Capa_1" xmlns="http://www.w3.org/2000/svg" xmlns:xlink="http://www.w3.org/1999/xlink" x="0px" y="0px"
	 viewBox="0 0 512 512" style="enable-background:new 0 0 512 512;" xml:space="preserve">
<g>
	<g>
		<path d="M271.005,75.718l0.001-36.62l-30-0.001l-0.001,36.608L0,257.404v215.499h512V257.404L271.005,75.718z M30,272.357
			l211.003-159.08l-0.002,57.423L132.207,336.441H30V272.357z M30,442.903v-76.461h82.515l-26.763,40.771l42.134,35.69H30z
			 M125.4,401.481l99.089-150.955L161.772,432.29L125.4,401.481z M189.845,442.903L256,251.175l66.157,191.728H189.845z
			 M287.517,250.541l99.079,150.941l-36.366,30.807L287.517,250.541z M482,442.903h-97.886l42.131-35.69l-26.763-40.771H482V442.903
			z M482,336.441H379.79L271.001,170.709l0.002-57.422L482,272.357V336.441z"/>
	</g>
</g>
<g>
</g>
<g>
</g>
<g>
</g>
<g>
</g>
<g>
</g>
<g>
</g>
<g>
</g>
<g>
</g>
<g>
</g>
<g>
</g>
<g>
</g>
<g>
</g>
<g>
</g>
<g>
</g>
<g>
</g>
</svg>
