<?xml version="1.0" encoding="iso-8859-1"?>
<!-- Generator: Adobe Illustrator 19.0.0, SVG Export Plug-In . SVG Version: 6.00 Build 0)  -->
<svg version="1.1" id="Capa_1" xmlns="http://www.w3.org/2000/svg" xmlns:xlink="http://www.w3.org/1999/xlink" x="0px" y="0px"
	 viewBox="0 0 330.99 330.99" style="enable-background:new 0 0 330.99 330.99;" xml:space="preserve">
<g>
	<g>
		<path d="M292.202,97.616V67.879c0-16.041-13.05-29.091-29.091-29.091h-16.162v-9.697C246.949,13.05,233.899,0,217.859,0
			s-29.091,13.05-29.091,29.091v9.697h-23.227l-21.333-25.859H29.091C13.05,12.929,0,25.979,0,42.02v174.545
			c0,16.041,13.05,29.091,29.091,29.091h30.384v85.333H330.99V97.616H292.202z M246.949,58.182h16.162
			c5.347,0,9.697,4.35,9.697,9.697v29.737h-25.859V58.182z M208.162,29.091c0-5.347,4.35-9.697,9.697-9.697s9.697,4.35,9.697,9.697
			v9.697h-19.394V29.091z M59.475,226.263H29.091c-5.347,0-9.697-4.35-9.697-9.697V42.02c0-5.347,4.35-9.697,9.697-9.697h105.974
			l21.333,25.859h71.157v39.434h-33.616V78.222h-19.394v19.394H59.475V226.263z M227.556,117.01v2.586
			c0,9.268-7.54,16.808-16.808,16.808c-9.268,0-16.808-7.54-16.808-16.808v-2.586H227.556z M311.596,311.596H78.869V117.01h95.677
			v2.586c0,19.962,16.24,36.202,36.202,36.202c19.962,0,36.202-16.24,36.202-36.202v-2.586h64.646V311.596z"/>
	</g>
</g>
<g>
	<g>
		<path d="M270.474,228.817c-17.424-13.282-40.837-14.605-59.645-3.369l-8.69,5.192l-35.867-31.464l-68.009,45.849v47.178h193.939
			v-46.821L270.474,228.817z M272.808,272.808H117.657v-17.469l47.062-31.727l35.245,30.918l20.812-12.432
			c11.965-7.149,26.858-6.308,37.942,2.142l14.092,10.742V272.808z"/>
	</g>
</g>
<g>
	<g>
		<path d="M127.354,136.404c-16.041,0-29.091,13.05-29.091,29.091s13.05,29.091,29.091,29.091s29.091-13.05,29.091-29.091
			S143.394,136.404,127.354,136.404z M127.354,175.192c-5.347,0-9.697-4.35-9.697-9.697c0-5.347,4.35-9.697,9.697-9.697
			c5.347,0,9.697,4.35,9.697,9.697C137.05,170.842,132.7,175.192,127.354,175.192z"/>
	</g>
</g>
<g>
</g>
<g>
</g>
<g>
</g>
<g>
</g>
<g>
</g>
<g>
</g>
<g>
</g>
<g>
</g>
<g>
</g>
<g>
</g>
<g>
</g>
<g>
</g>
<g>
</g>
<g>
</g>
<g>
</g>
</svg>
